<mxfile host="app.diagrams.net" modified="2023-09-19T11:49:33.773Z" agent="Mozilla/5.0 (Windows NT 10.0; Win64; x64) AppleWebKit/537.36 (KHTML, like Gecko) Chrome/116.0.0.0 Safari/537.36" etag="IRUFNp32Kb1h904MMNyu" version="21.7.5" type="device">
  <diagram name="Strona-1" id="w9pd5wU_QXr5ZG4Q1WcZ">
    <mxGraphModel dx="1434" dy="910" grid="1" gridSize="10" guides="1" tooltips="1" connect="1" arrows="1" fold="1" page="1" pageScale="1" pageWidth="827" pageHeight="1169" math="0" shadow="0">
      <root>
        <mxCell id="0" />
        <mxCell id="1" parent="0" />
        <mxCell id="phLHJb6x8CTUzjAinRW_-1" value="start" style="ellipse;whiteSpace=wrap;html=1;" vertex="1" parent="1">
          <mxGeometry x="354" y="50" width="120" height="80" as="geometry" />
        </mxCell>
        <mxCell id="phLHJb6x8CTUzjAinRW_-2" value="Wprowadź zmienna a:" style="shape=parallelogram;perimeter=parallelogramPerimeter;whiteSpace=wrap;html=1;fixedSize=1;" vertex="1" parent="1">
          <mxGeometry x="334" y="180" width="160" height="50" as="geometry" />
        </mxCell>
        <mxCell id="phLHJb6x8CTUzjAinRW_-3" value="Wprowadź zmienna b:" style="shape=parallelogram;perimeter=parallelogramPerimeter;whiteSpace=wrap;html=1;fixedSize=1;" vertex="1" parent="1">
          <mxGeometry x="334" y="280" width="160" height="50" as="geometry" />
        </mxCell>
        <mxCell id="phLHJb6x8CTUzjAinRW_-4" value="Jeżeli a&amp;gt;b" style="rhombus;whiteSpace=wrap;html=1;" vertex="1" parent="1">
          <mxGeometry x="374" y="370" width="80" height="80" as="geometry" />
        </mxCell>
        <mxCell id="phLHJb6x8CTUzjAinRW_-5" value="A-B" style="rounded=0;whiteSpace=wrap;html=1;" vertex="1" parent="1">
          <mxGeometry x="520" y="380" width="120" height="60" as="geometry" />
        </mxCell>
        <mxCell id="phLHJb6x8CTUzjAinRW_-6" value="B-A" style="rounded=0;whiteSpace=wrap;html=1;" vertex="1" parent="1">
          <mxGeometry x="190" y="380" width="120" height="60" as="geometry" />
        </mxCell>
        <mxCell id="phLHJb6x8CTUzjAinRW_-7" value="" style="endArrow=classic;html=1;rounded=0;exitX=0.5;exitY=1;exitDx=0;exitDy=0;entryX=0.5;entryY=0;entryDx=0;entryDy=0;" edge="1" parent="1" source="phLHJb6x8CTUzjAinRW_-1" target="phLHJb6x8CTUzjAinRW_-2">
          <mxGeometry width="50" height="50" relative="1" as="geometry">
            <mxPoint x="390" y="490" as="sourcePoint" />
            <mxPoint x="440" y="440" as="targetPoint" />
          </mxGeometry>
        </mxCell>
        <mxCell id="phLHJb6x8CTUzjAinRW_-8" value="" style="endArrow=classic;html=1;rounded=0;exitX=0.5;exitY=1;exitDx=0;exitDy=0;" edge="1" parent="1" source="phLHJb6x8CTUzjAinRW_-2" target="phLHJb6x8CTUzjAinRW_-3">
          <mxGeometry width="50" height="50" relative="1" as="geometry">
            <mxPoint x="390" y="490" as="sourcePoint" />
            <mxPoint x="440" y="440" as="targetPoint" />
          </mxGeometry>
        </mxCell>
        <mxCell id="phLHJb6x8CTUzjAinRW_-9" value="" style="endArrow=classic;html=1;rounded=0;exitX=0.5;exitY=1;exitDx=0;exitDy=0;entryX=0.5;entryY=0;entryDx=0;entryDy=0;" edge="1" parent="1" source="phLHJb6x8CTUzjAinRW_-3" target="phLHJb6x8CTUzjAinRW_-4">
          <mxGeometry width="50" height="50" relative="1" as="geometry">
            <mxPoint x="390" y="490" as="sourcePoint" />
            <mxPoint x="440" y="440" as="targetPoint" />
          </mxGeometry>
        </mxCell>
        <mxCell id="phLHJb6x8CTUzjAinRW_-10" value="" style="endArrow=classic;html=1;rounded=0;exitX=1;exitY=0.5;exitDx=0;exitDy=0;entryX=0;entryY=0.5;entryDx=0;entryDy=0;" edge="1" parent="1" source="phLHJb6x8CTUzjAinRW_-4" target="phLHJb6x8CTUzjAinRW_-5">
          <mxGeometry width="50" height="50" relative="1" as="geometry">
            <mxPoint x="390" y="490" as="sourcePoint" />
            <mxPoint x="440" y="440" as="targetPoint" />
          </mxGeometry>
        </mxCell>
        <mxCell id="phLHJb6x8CTUzjAinRW_-11" value="" style="endArrow=classic;html=1;rounded=0;exitX=0;exitY=0.5;exitDx=0;exitDy=0;entryX=1;entryY=0.5;entryDx=0;entryDy=0;" edge="1" parent="1" source="phLHJb6x8CTUzjAinRW_-4" target="phLHJb6x8CTUzjAinRW_-6">
          <mxGeometry width="50" height="50" relative="1" as="geometry">
            <mxPoint x="390" y="490" as="sourcePoint" />
            <mxPoint x="440" y="440" as="targetPoint" />
          </mxGeometry>
        </mxCell>
        <mxCell id="phLHJb6x8CTUzjAinRW_-12" value="Tak" style="text;html=1;align=center;verticalAlign=middle;resizable=0;points=[];autosize=1;strokeColor=none;fillColor=none;" vertex="1" parent="1">
          <mxGeometry x="470" y="380" width="40" height="30" as="geometry" />
        </mxCell>
        <mxCell id="phLHJb6x8CTUzjAinRW_-13" value="Nie" style="text;html=1;align=center;verticalAlign=middle;resizable=0;points=[];autosize=1;strokeColor=none;fillColor=none;" vertex="1" parent="1">
          <mxGeometry x="334" y="380" width="40" height="30" as="geometry" />
        </mxCell>
        <mxCell id="phLHJb6x8CTUzjAinRW_-14" value="Wyświetl wynik odejmowania" style="shape=parallelogram;perimeter=parallelogramPerimeter;whiteSpace=wrap;html=1;fixedSize=1;" vertex="1" parent="1">
          <mxGeometry x="354" y="490" width="120" height="60" as="geometry" />
        </mxCell>
        <mxCell id="phLHJb6x8CTUzjAinRW_-15" value="" style="endArrow=classic;html=1;rounded=0;exitX=0.5;exitY=1;exitDx=0;exitDy=0;entryX=0;entryY=0.5;entryDx=0;entryDy=0;" edge="1" parent="1" source="phLHJb6x8CTUzjAinRW_-6" target="phLHJb6x8CTUzjAinRW_-14">
          <mxGeometry width="50" height="50" relative="1" as="geometry">
            <mxPoint x="390" y="490" as="sourcePoint" />
            <mxPoint x="440" y="440" as="targetPoint" />
            <Array as="points">
              <mxPoint x="250" y="520" />
            </Array>
          </mxGeometry>
        </mxCell>
        <mxCell id="phLHJb6x8CTUzjAinRW_-16" value="" style="endArrow=classic;html=1;rounded=0;exitX=0.5;exitY=1;exitDx=0;exitDy=0;entryX=1;entryY=0.5;entryDx=0;entryDy=0;" edge="1" parent="1" source="phLHJb6x8CTUzjAinRW_-5" target="phLHJb6x8CTUzjAinRW_-14">
          <mxGeometry width="50" height="50" relative="1" as="geometry">
            <mxPoint x="390" y="490" as="sourcePoint" />
            <mxPoint x="440" y="440" as="targetPoint" />
            <Array as="points">
              <mxPoint x="590" y="520" />
            </Array>
          </mxGeometry>
        </mxCell>
        <mxCell id="phLHJb6x8CTUzjAinRW_-17" value="Koniec" style="ellipse;whiteSpace=wrap;html=1;" vertex="1" parent="1">
          <mxGeometry x="354" y="585" width="120" height="80" as="geometry" />
        </mxCell>
        <mxCell id="phLHJb6x8CTUzjAinRW_-18" value="" style="endArrow=classic;html=1;rounded=0;exitX=0.5;exitY=1;exitDx=0;exitDy=0;entryX=0.5;entryY=0;entryDx=0;entryDy=0;" edge="1" parent="1" source="phLHJb6x8CTUzjAinRW_-14" target="phLHJb6x8CTUzjAinRW_-17">
          <mxGeometry width="50" height="50" relative="1" as="geometry">
            <mxPoint x="390" y="490" as="sourcePoint" />
            <mxPoint x="440" y="440" as="targetPoint" />
          </mxGeometry>
        </mxCell>
      </root>
    </mxGraphModel>
  </diagram>
</mxfile>
